<?xml version="1.0" encoding="utf-8"?><svg width="114" height="24" viewBox="0 0 114 24" fill="none" xmlns="http://www.w3.org/2000/svg">
<path fill-rule="evenodd" clip-rule="evenodd" d="M11.9421 5.414L16.3277 10.054L18.8986 7.336L11.9421 0L4.98572 7.36L7.55657 10.078L11.9421 5.414ZM5.71723 12L3.17095 14.695L0.600098 12L3.17 9.28103L5.71723 12ZM18.167 12L20.7142 9.28103L23.3058 12L20.7369 14.719L18.167 12ZM11.9421 18.586L7.55657 13.922L4.98572 16.641L11.9421 24L18.8986 16.64L16.3277 13.922L11.9421 18.586ZM14.5121 11.976L11.9422 14.696V14.695L9.37228 12L11.9422 9.282L14.5121 11.976ZM38.9679 14.976V14.93C38.9679 13.172 38.0813 12.281 36.6419 11.695C37.5275 11.18 38.2808 10.335 38.2808 8.85899V8.81299C38.2808 6.74999 36.708 5.41399 34.1825 5.41399H28.401V18.563H34.3158C37.1286 18.586 38.9679 17.367 38.9679 14.977V14.976ZM33.5845 10.734C34.8028 10.734 35.5561 10.336 35.5561 9.35201V9.30501C35.5561 8.43701 34.9143 7.945 33.7622 7.945H31.0599V10.734H33.5845ZM36.2432 14.602C36.2432 15.586 35.5126 16.032 34.3151 16.032H31.0599V13.148H34.2272C35.6232 13.148 36.2432 13.688 36.2432 14.578V14.602ZM44.705 5.41399V18.563H41.9584V5.41399H44.705ZM59.4148 18.586V5.41399H56.7116V13.524L50.8856 5.41399H48.3601V18.563H51.0633V10.219L57.0887 18.586H59.4138H59.4148ZM69.2284 5.34397L74.5658 18.586H71.6877L70.5583 15.633H65.3079L64.1784 18.586H61.3646L66.7039 5.34397H69.2284ZM69.5819 13.078H66.2813L67.9429 8.81303L69.5819 13.078ZM87.6145 5.41399V18.586H87.6136H85.2885L79.263 10.219V18.563H76.5599V5.41399H79.0853L84.9113 13.524V5.41399H87.6145ZM101.725 16.453L99.9759 14.602C99.0005 15.539 98.1366 16.148 96.6971 16.148C94.5705 16.148 93.0866 14.273 93.0866 12.023V11.953C93.0866 9.70303 94.5923 7.85203 96.6971 7.85203C97.9372 7.85203 98.9126 8.41403 99.8871 9.32803L101.637 7.19503C100.485 6.00003 99.0894 5.15603 96.7416 5.15603C92.9316 5.15603 90.2511 8.22603 90.2511 11.953V12C90.2511 15.773 92.9751 18.773 96.631 18.773C99.0232 18.797 100.441 17.906 101.725 16.453ZM113.4 16.008V18.563H103.941V5.41399H113.311V7.99199H106.643V10.664H112.513V13.242H106.643V16.008H113.4Z" fill="#DCE5ED"/>
</svg>
