<?xml version="1.0" encoding="utf-8"?>
<svg width="134" height="16" viewBox="0 0 134 16" fill="none" xmlns="http://www.w3.org/2000/svg">
<g clip-path="url(#clip0_204_3787)">
<path d="M114.507 15.7295C114.605 15.8314 114.532 16 114.39 16H110.855C110.811 16 110.768 15.9819 110.738 15.9499L106.039 11.0165L101.289 15.9505C101.258 15.9821 101.216 16 101.172 16H97.6364C97.4947 16 97.4214 15.8314 97.5195 15.7295L103.997 8.99255L97.7392 2.44615C97.6418 2.34421 97.7143 2.17603 97.856 2.17603H101.393C101.437 2.17603 101.479 2.19425 101.51 2.22639L106.005 6.96861L110.517 2.22617C110.547 2.19417 110.59 2.17603 110.634 2.17603H114.171C114.312 2.17603 114.385 2.34421 114.288 2.44615L108.029 8.99255L114.507 15.7295Z" fill="#DCE5ED"/>
<path d="M80.9899 15.9998C80.8663 15.9998 80.7662 15.9003 80.7662 15.7777V2.39861C80.7662 2.27595 80.8663 2.17651 80.9899 2.17651H94.347C94.4706 2.17651 94.5707 2.27595 94.5707 2.39861V4.31187C94.5707 4.43453 94.4706 4.53397 94.347 4.53397H84.0053V7.61472H90.2059C90.3295 7.61472 90.4296 7.71419 90.4296 7.83685V9.75012C90.4296 9.87279 90.3295 9.97219 90.2059 9.97219H84.0053V13.4013H94.482C94.6056 13.4013 94.7057 13.5007 94.7057 13.6233V15.7777C94.7057 15.9003 94.6056 15.9998 94.482 15.9998H80.9899Z" fill="#DCE5ED"/>
<path d="M57.3387 15.9998C57.2151 15.9998 57.115 15.9003 57.115 15.7777V2.39861C57.115 2.27595 57.2151 2.17651 57.3387 2.17651H60.1303C60.2539 2.17651 60.354 2.27595 60.354 2.39861V15.7777C60.354 15.9003 60.2539 15.9998 60.1303 15.9998H57.3387Z" fill="#DCE5ED"/>
<path d="M41.4586 15.9998C41.335 15.9998 41.2347 15.9003 41.2347 15.7777V2.39861C41.2347 2.27595 41.335 2.17651 41.4586 2.17651H54.6534C54.777 2.17651 54.8771 2.27595 54.8771 2.39861V4.36545C54.8771 4.48811 54.777 4.58755 54.6534 4.58755H44.4738V8.23092H50.1074C50.2309 8.23092 50.3311 8.33032 50.3311 8.45299V10.527C50.3311 10.6497 50.2309 10.7491 50.1074 10.7491H44.4738V15.7777C44.4738 15.9003 44.3737 15.9998 44.2501 15.9998H41.4586Z" fill="#DCE5ED"/>
<path d="M32.7966 4.64113V15.7777C32.7966 15.9003 32.6964 15.9998 32.5728 15.9998H29.7813C29.6577 15.9998 29.5575 15.9003 29.5575 15.7777V4.64113H23.6079C23.4843 4.64113 23.3842 4.54169 23.3842 4.41903V2.39861C23.3842 2.27595 23.4843 2.17651 23.6079 2.17651H38.7732C38.8968 2.17651 38.9969 2.27595 38.9969 2.39861V4.41903C38.9969 4.54169 38.8968 4.64113 38.7732 4.64113H32.7966Z" fill="#DCE5ED"/>
<path d="M18.1311 15.9998C18.0076 15.9998 17.9073 15.9003 17.9073 15.7777V2.39861C17.9073 2.27595 18.0076 2.17651 18.1311 2.17651H20.9226C21.0462 2.17651 21.1464 2.27595 21.1464 2.39861V15.7777C21.1464 15.9003 21.0462 15.9998 20.9226 15.9998H18.1311Z" fill="#DCE5ED"/>
<path fill-rule="evenodd" clip-rule="evenodd" d="M0.5 2.39861C0.5 2.27595 0.600188 2.17651 0.723777 2.17651H12.6518C14.2584 2.17651 15.5608 3.46917 15.5608 5.06373V5.98649C15.5608 7.58105 14.2584 8.87372 12.6518 8.87372H12.7605C14.3671 8.87372 15.6696 10.1664 15.6696 11.7609V13.1128C15.6696 14.7073 14.3671 16 12.7605 16H0.723777C0.600189 16 0.5 15.9006 0.5 15.7779V2.39861ZM3.68309 4.42731H11.2222C11.9637 4.42731 12.5648 5.02392 12.5648 5.75987V6.3894C12.5648 7.12532 11.9637 7.72199 11.2222 7.72199H3.68309V4.42731ZM3.68309 9.99785H11.3031C12.0447 9.99785 12.6458 10.5945 12.6458 11.3305V12.1757C12.6458 12.9117 12.0447 13.5083 11.3031 13.5083H3.68309V9.99785Z" fill="#DCE5ED"/>
<path d="M62.5917 15.7777V2.39861C62.5917 2.27595 62.6919 2.17651 62.8155 2.17651H64.7203C64.7749 2.17651 64.8276 2.19635 64.8686 2.2323L75.6134 11.6711V2.39861C75.6134 2.27595 75.7135 2.17651 75.8371 2.17651H78.305C78.4286 2.17651 78.5286 2.27595 78.5286 2.39861V15.7777C78.5286 15.9003 78.4286 15.9998 78.305 15.9998H76.4C76.3456 15.9998 76.2925 15.9799 76.2515 15.9438L65.5069 6.48044V15.7777C65.5069 15.9003 65.4066 15.9998 65.2831 15.9998H62.8155C62.6919 15.9998 62.5917 15.9003 62.5917 15.7777Z" fill="#DCE5ED"/>
<path d="M117.199 10.4335C117.058 8.1682 118.017 5.65028 119.991 3.69069C124.285 -0.570241 133.225 0.0270027 133.276 0.0304347C133.251 0.0655987 126.716 9.47093 118.97 10.3506C118.372 10.4186 117.78 10.4453 117.199 10.4335Z" fill="#79828A"/>
<path d="M118.106 13.3297C118.327 13.6797 118.589 14.0075 118.891 14.3075C121.541 16.9378 126.331 16.4489 129.589 13.2157C133.894 8.94262 133.276 0.0305176 133.276 0.0305176C133.252 0.0833256 128.567 10.5067 121.121 12.7803C120.11 13.0889 119.097 13.2687 118.106 13.3297Z" fill="#79828A"/>
</g>
<defs>
<clipPath id="clip0_204_3787">
<rect width="133" height="16" fill="white" transform="translate(0.5)"/>
</clipPath>
</defs>
</svg>
