<?xml version="1.0" encoding="utf-8"?>
<svg width="82" height="26" viewBox="0 0 82 26" fill="none" xmlns="http://www.w3.org/2000/svg">
<path d="M11.5022 13.6214H6.61321L1.61175 8.77313C1.2864 8.45768 1.28474 7.94472 1.60844 7.62773L8.02247 1.33813H13.0588L11.5362 2.78227L5.94583 8.20189L11.4651 13.6214M9.49257 8.21443H14.3816L19.383 13.0627C19.7083 13.378 19.71 13.891 19.3863 14.208L12.9722 20.4972H7.93595L9.45855 19.0531L15.0489 13.6335L9.52959 8.2139M48.0067 11.9717V9.2932H45.6542V5.51458H42.4166V9.2932H40.4071V11.9717H42.4166V16.3564C42.4166 18.7941 42.9087 20.5856 45.9767 20.5303L47.9026 20.4935V17.982H46.947C45.5833 17.982 45.6592 17.2064 45.6592 15.7658L45.6539 11.9718L48.0067 11.9717ZM80.6329 11.9717V9.2932H78.2809V5.51458H75.043V9.2932H73.0335V11.9717H75.043V16.3564C75.043 18.7941 75.5351 20.5856 78.6028 20.5303L80.5294 20.4935V17.982H79.573C78.2096 17.982 78.2855 17.2064 78.2855 15.7658L78.2802 11.9718L80.6329 11.9717ZM57.244 10.5636C56.8585 10.1118 56.4066 9.76158 55.897 9.51948C55.2887 9.23241 54.5769 9.08711 53.7814 9.08711C52.8074 9.08711 51.9342 9.3215 51.1873 9.78307C50.4412 10.2442 49.8494 10.896 49.4291 11.7192C49.0103 12.5402 48.7974 13.5043 48.7974 14.5856C48.7974 15.6669 49.0212 16.5743 49.4627 17.4011C49.905 18.2306 50.5184 18.8913 51.2854 19.366C52.0539 19.8416 52.9304 20.083 53.8907 20.083C54.6157 20.083 55.278 19.9298 55.8581 19.6274C56.3175 19.3882 56.7022 19.0716 57.0057 18.6849V19.9044C57.0057 20.6602 56.8019 21.2404 56.4014 21.6271C55.9997 22.0138 55.3889 22.2089 54.5854 22.2089C53.8932 22.2089 53.3487 22.0559 52.9677 21.7534C52.656 21.5062 52.3839 21.1814 52.3203 20.4938H49.178C49.2071 21.4558 49.4968 22.1041 49.9055 22.672C50.3641 23.3085 51.009 23.8062 51.824 24.1498C52.6312 24.4894 53.5677 24.6619 54.6074 24.6619C56.3524 24.6619 57.7418 24.234 58.7356 23.3911C59.7357 22.5433 60.2428 21.3563 60.2428 19.8634V9.29282H57.2442L57.244 10.5636ZM56.6702 16.0735C56.4635 16.4897 56.1718 16.8161 55.802 17.0419C55.4327 17.2679 54.9869 17.3828 54.4765 17.3828C53.7387 17.3828 53.1651 17.1379 52.722 16.6335C52.2805 16.1318 52.0568 15.4427 52.0568 14.5852C52.0568 13.7277 52.2805 13.0385 52.722 12.5362C53.1593 12.0386 53.7498 11.7868 54.4765 11.7868C55.2031 11.7868 55.8451 12.0422 56.2965 12.5475C56.7523 13.0568 56.9834 13.7495 56.9834 14.6049C56.9834 15.1592 56.8781 15.6533 56.6702 16.0735ZM39.3941 5.51458H35.9987V8.2142H39.3941V5.51458ZM71.519 10.9775C71.0032 10.3783 70.3566 9.90864 69.5972 9.58111C68.8386 9.25397 67.9853 9.08719 67.0624 9.08719C65.9312 9.08719 64.9107 9.33778 64.0284 9.83171C63.1441 10.3273 62.4423 11.0155 61.9419 11.8787C61.4414 12.741 61.1878 13.7419 61.1878 14.8524C61.1878 15.963 61.434 17.0297 61.919 17.9055C62.4054 18.784 63.1046 19.473 63.9971 19.9552C64.8876 20.4346 65.9336 20.6779 67.1061 20.6779C68.5453 20.6779 69.7669 20.3249 70.7381 19.628C71.6733 18.9577 72.3166 18.0119 72.667 16.828H69.3857C69.213 17.2308 68.9698 17.5739 68.6216 17.8155C68.2099 18.1005 67.6783 18.2451 67.0409 18.2451C66.4883 18.2451 66.0146 18.1139 65.6334 17.8555C65.2504 17.5973 64.9578 17.2155 64.7656 16.7196C64.6503 16.4248 64.5686 16.0859 64.5204 15.709H72.7244L72.7405 15.6094C72.8869 14.7062 72.8501 13.8502 72.6294 13.0656C72.4081 12.279 72.0345 11.5768 71.519 10.9775ZM64.5722 13.6355C64.6224 13.4075 64.69 13.1703 64.776 12.9542C64.976 12.4517 65.2647 12.065 65.6349 11.8067C66.0035 11.5484 66.462 11.4181 66.9982 11.4181C67.6701 11.4181 68.2216 11.6306 68.6374 12.0488C69.0315 12.4468 69.2552 12.9906 69.3029 13.6355H64.5722ZM39.3272 9.2932H36.0678V20.4935H39.3272V9.2932ZM32.4343 12.6554C33.0304 12.325 33.5082 11.9136 33.856 11.4286C34.2523 10.8764 34.4535 10.2456 34.4535 9.55488C34.4535 8.26177 33.958 7.25235 32.9815 6.55448C32.0167 5.86458 30.6892 5.51519 29.0346 5.51519H23.0517V20.4938H29.2736C31.0161 20.4938 32.4113 20.0986 33.4201 19.3184C34.4369 18.5318 34.953 17.4302 34.953 16.0435C34.953 15.1993 34.7103 14.473 34.2322 13.8851C33.8033 13.3596 33.1991 12.9464 32.4343 12.6554ZM26.2894 8.21481H28.7745C29.5538 8.21481 30.1422 8.36225 30.5244 8.65207C30.902 8.93838 31.0855 9.31446 31.0855 9.8015C31.0855 10.2885 30.902 10.6837 30.5244 10.9712C30.1422 11.2611 29.5538 11.4085 28.7745 11.4085H26.2894V8.21481ZM30.9677 17.2867C30.5368 17.6235 29.8792 17.7939 29.013 17.7939H26.2894V14.1283H29.013C29.8786 14.1283 30.5371 14.2931 30.9696 14.6165C31.3983 14.9393 31.6067 15.3652 31.6067 15.9202C31.6067 16.504 31.3976 16.9506 30.9677 17.2867Z" fill="#DCE5ED"/>
</svg>
