<?xml version="1.0" encoding="utf-8"?><svg width="112" height="26" viewBox="0 0 112 26" fill="none" xmlns="http://www.w3.org/2000/svg">
<g clip-path="url(#clip0_204_3979)">
<path fill-rule="evenodd" clip-rule="evenodd" d="M19.3435 12.2426L19.3072 12.2149C20.1169 11.0459 20.5217 9.62398 20.5217 7.94923C20.5217 5.46504 19.6716 3.5186 17.9712 2.10995C16.2708 0.701286 13.9308 -0.00202685 10.9511 4.38716e-06H3.53028V1.0405H10.8176C13.3498 1.0405 15.6089 1.6057 17.0421 2.77721C18.375 3.86798 18.8639 4.80642 19.254 6.21103C18.8579 4.92982 17.9242 4.10564 17.3441 3.62119C16.3285 2.76503 15.0669 2.16632 11.6298 2.16632H5.90623V3.18092H11.5022C14.4353 3.18092 15.5117 3.54348 16.4985 4.27625C17.7617 5.21468 18.5451 6.33593 18.5451 7.95381C18.5451 9.41176 18.0349 10.1918 17.1787 11.0007C17.0785 10.961 16.9783 10.923 16.8751 10.8864L16.9722 10.8346C17.8998 10.3213 18.542 9.33563 18.542 7.94923C18.542 6.43495 17.6767 5.48892 16.8295 4.95571C16.0355 4.45603 15.2794 4.12088 12.0533 4.12088H7.93907V4.79727H11.9379C14.8498 4.79727 15.9536 5.31676 16.2875 5.52242C16.9419 5.92462 17.8057 6.62235 17.8057 7.95991C17.8057 8.81303 17.3032 9.83986 16.5608 10.2587C16.3197 10.3927 16.0653 10.5009 15.8017 10.5818C14.6965 10.3305 13.566 10.2087 12.4329 10.2191H7.46996V11.2596H12.2962C14.8286 11.2596 17.121 11.7821 18.5207 12.9963C19.5774 13.8979 20.3462 15.0915 20.7312 16.4286C20.3365 15.1474 19.5258 14.3705 18.8229 13.8388C17.7601 13.0329 16.5456 12.3824 13.1085 12.384H5.3278V13.3985H12.9809C15.914 13.3985 16.9889 13.7611 17.9772 14.4939C19.2404 15.4324 20.0116 16.5536 20.0116 18.1715C20.0116 19.7314 19.2282 20.8694 17.959 21.8079C16.661 22.7676 14.6767 22.7966 13.8691 22.7966H9.6182V23.8097H12.7957C15.4556 23.8097 17.2318 23.5812 18.7698 22.4386C20.2121 21.363 20.9787 19.9721 20.9787 18.1729C20.9927 19.1371 20.7862 20.0917 20.3751 20.9632C19.9641 21.8346 19.3593 22.5999 18.6073 23.2003C17.1514 24.4068 14.5538 24.9385 11.9546 24.9385H3.58796V25.9729H12.0139C15.1514 25.9729 17.6002 25.2895 19.3603 23.9224C21.1204 22.5553 22.0014 20.6348 22.0035 18.1608C21.9974 15.6735 21.1437 13.7266 19.4424 12.3199C19.4099 12.2932 19.3768 12.2679 19.3435 12.2426ZM19.4934 8.08182C19.4903 9.33847 19.1136 10.5667 18.41 11.6085C18.3204 11.5568 18.2293 11.5065 18.1381 11.4562C19.0031 10.5447 19.4868 9.33717 19.4934 8.08182ZM14.2773 16.7028H6.98404V17.2692H14.2773V16.7028ZM9.99163 18.764H14.2334V19.2498H9.99163V18.764ZM5.73933 16.7028H3.57896V17.2692H5.73933V16.7028ZM2.23212 18.7245H8.79364V19.2907H2.23212V18.7245ZM8.40653 23.0479H2.23212V23.7269H8.40653V23.0479ZM3.84906 4.27932H6.40566V4.74672H3.84906V4.27932ZM7.92379 7.99654H2.06816V8.54003H7.92379V7.99654ZM4.55184 6.33593H14.247V6.87945H4.55184V6.33593ZM14.0634 7.99654H9.39953V8.54003H14.0634V7.99654ZM20.0025 18.1624C20.0025 19.4711 19.3724 20.4506 18.4434 20.9457C17.5172 21.4377 16.2056 21.7211 13.9876 21.7211H0.5V21.0767H13.9267C15.9732 21.0767 17.3487 20.7461 18.0258 20.3774C18.7698 19.9707 19.2722 18.982 19.2722 18.1594C19.2722 16.872 18.4084 16.1941 17.7541 15.8056C17.4201 15.6076 16.3148 15.1064 13.4045 15.1064H8.28217V14.462H13.5244C16.8098 14.462 17.5066 14.7864 18.3022 15.2679C19.1493 15.7843 20.0025 16.7014 20.0025 18.1624ZM46.0651 6.69545C45.6819 6.70603 45.3066 6.58391 45.0024 6.34964C44.8652 6.24978 44.7538 6.11845 44.6775 5.9666C44.6011 5.81475 44.5622 5.64678 44.5637 5.47671C44.5622 5.3058 44.6011 5.13696 44.6774 4.98413C44.7538 4.8313 44.8652 4.69884 45.0024 4.59769C45.3049 4.35961 45.681 4.23563 46.0651 4.24731C46.4554 4.23559 46.8378 4.35934 47.1476 4.59769C47.2864 4.69619 47.3996 4.82669 47.4778 4.97817C47.5559 5.12967 47.5967 5.29776 47.5967 5.46834C47.5967 5.63892 47.5559 5.80702 47.4778 5.95851C47.3996 6.11001 47.2864 6.24048 47.1476 6.33898C46.8391 6.58053 46.4563 6.70659 46.0651 6.69545ZM47.1977 21.4514H44.8764V9.68289H47.1977V21.4514ZM29.7342 21.4514V4.97094H35.5032C37.2572 4.97094 38.6483 5.3193 39.6767 6.01601C40.705 6.71273 41.2192 7.62069 41.2192 8.7399C41.2317 9.64267 40.8973 10.5154 40.2855 11.1773C39.663 11.868 38.8028 12.3585 37.7046 12.649V12.6947C39.0719 12.8247 40.1661 13.2442 40.9869 13.953C41.3867 14.2905 41.7052 14.7145 41.9185 15.193C42.1316 15.6717 42.2341 16.1926 42.2182 16.7165C42.2182 18.1272 41.5956 19.2688 40.3508 20.1412C39.1059 21.0137 37.5371 21.4504 35.6445 21.4514H29.7342ZM32.1116 6.71831V12.0396H34.5406C35.8423 12.0396 36.8655 11.7858 37.6105 11.2779C37.9671 11.0468 38.2577 10.7265 38.4539 10.3486C38.6501 9.97059 38.7449 9.54809 38.7293 9.12226C38.7293 7.52166 37.4323 6.72136 34.8383 6.72136L32.1116 6.71831ZM32.1116 13.7748V19.7056H35.3377C36.7335 19.7056 37.8159 19.4374 38.5852 18.9011C38.9497 18.6631 39.2473 18.3351 39.4493 17.9487C39.6514 17.5621 39.7511 17.1299 39.739 16.6937C39.739 14.7488 38.1069 13.7759 34.8428 13.7748H32.1116ZM55.2926 21.7044C56.1894 21.7054 56.9109 21.5829 57.4575 21.3372L57.462 19.7285C57.0023 19.9984 56.4764 20.1336 55.9439 20.1185C55.1787 20.1185 54.6312 19.9499 54.3012 19.6127C53.9713 19.2755 53.8062 18.7124 53.8062 17.9232V11.2917H57.4575V9.68297H53.8062V6.20042L51.4866 6.80979V9.68297H48.9952V11.2917H51.4866V18.2568C51.4855 20.5551 52.7542 21.7044 55.2926 21.7044ZM78.5342 21.4514H76.3602V11.2811C76.371 10.2955 76.4318 9.31101 76.5424 8.33162H76.4908C76.3518 8.83821 76.1642 9.33002 75.9306 9.80021L69.5542 21.4514H68.4915L62.1258 9.88561C61.885 9.38884 61.6971 8.86795 61.5656 8.33162H61.5139C61.5992 9.31946 61.6342 10.3109 61.6187 11.3023V21.4514H59.4963V6.29027H62.3808L68.1089 16.8628C68.4456 17.444 68.733 18.0525 68.9682 18.6819H69.0471C69.4197 17.8501 69.7187 17.23 69.9444 16.8218L75.7894 6.29027H78.5221L78.5342 21.4514ZM90.3233 21.4514H92.6446V13.7977C92.6438 10.8707 90.9407 9.40721 87.5361 9.40721C85.6767 9.40721 84.0352 9.77478 82.6108 10.5101V12.4419C84.0004 11.481 85.6516 10.975 87.3385 10.9931C89.3284 10.994 90.3233 11.994 90.3233 13.9927L85.9797 14.4878C82.7907 14.8473 81.1959 16.1265 81.1959 18.3254C81.1837 18.8061 81.2888 19.2826 81.502 19.7133C81.7155 20.1439 82.0307 20.5158 82.4196 20.7963C83.2363 21.4169 84.3666 21.7271 85.8096 21.7271C87.7695 21.7282 89.2546 21.0233 90.2674 19.6126H90.3233V21.4514ZM86.8313 15.8894L90.3233 15.4993L90.3322 16.6709C90.3428 17.1436 90.2471 17.6127 90.0519 18.0433C89.8574 18.4739 89.569 18.8551 89.2076 19.1587C88.4574 19.8137 87.507 20.1412 86.3565 20.1412C85.5179 20.1412 84.8462 19.9595 84.3398 19.5959C84.1057 19.4443 83.9137 19.2357 83.7808 18.9897C83.6479 18.7436 83.579 18.468 83.5807 18.1882C83.5863 17.3981 83.8602 16.8481 84.4022 16.5384C84.9451 16.2286 85.7545 16.0123 86.8313 15.8894ZM103.414 11.5902C103.01 11.3374 102.424 11.211 101.659 11.211C101.188 11.2032 100.719 11.3014 100.289 11.4982C99.8596 11.6951 99.4788 11.9858 99.1749 12.3489C98.5106 13.1075 98.1784 14.142 98.1784 15.4521V21.4514H95.8579V9.68289H98.1784V12.1097H98.2359C98.5324 11.3238 99.0623 10.6481 99.7534 10.1734C100.424 9.71254 101.218 9.46944 102.031 9.47724C102.498 9.46043 102.966 9.51486 103.417 9.63877V9.68297H105.525V6.80979L107.844 6.20042V9.68297H111.488V11.2917H107.844V17.9232C107.844 18.7124 108.009 19.2755 108.339 19.6127C108.67 19.9499 109.217 20.1185 109.982 20.1185C110.514 20.1336 111.041 19.9984 111.5 19.7285L111.495 21.3372C110.949 21.5829 110.227 21.7054 109.331 21.7044C106.792 21.7044 105.524 20.5551 105.525 18.2568V11.2917H103.415L103.414 11.5902ZM0.692859 24.9462H2.23683V25.9312H0.692859V24.9462Z" fill="#DCE5ED"/>
</g>
<defs>
<clipPath id="clip0_204_3979">
<rect width="111" height="26" fill="white" transform="translate(0.5)"/>
</clipPath>
</defs>
</svg>
