<?xml version="1.0" encoding="utf-8"?><svg width="62" height="24" viewBox="0 0 62 24" fill="none" xmlns="http://www.w3.org/2000/svg">
<g clip-path="url(#clip0_204_3669)">
<path d="M43.9771 17.8992V2.11768H47.1279V17.8992H43.9771Z" fill="#79828A"/>
<path d="M7.25492 22.587H0.5V6.80542H6.98329C10.1342 6.80542 11.9702 8.53426 11.9702 11.2386C11.9702 12.9891 10.791 14.1203 9.97491 14.497C10.9491 14.9401 12.1961 15.9373 12.1961 18.044C12.1961 20.991 10.1342 22.587 7.25492 22.587ZM6.73389 9.5544H3.6509V13.1895H6.73389C8.07108 13.1895 8.81928 12.4579 8.81928 11.3713C8.81928 10.286 8.07108 9.5544 6.73389 9.5544ZM6.93761 15.9602H3.6509V19.8392H6.93761C8.36613 19.8392 9.04519 18.9531 9.04519 17.8883C9.04519 16.8246 8.36486 15.9602 6.93761 15.9602Z" fill="#DCE5ED"/>
<path d="M21.8066 16.1147V22.587H18.6779V16.1147L13.8269 6.80542H17.2494L20.2645 13.1665L23.2339 6.80542H26.6565L21.8066 16.1147Z" fill="#DCE5ED"/>
<path d="M35.5895 22.587H28.8346V6.80542H35.3179C38.4688 6.80542 40.3048 8.53426 40.3048 11.2386C40.3048 12.9891 39.1256 14.1203 38.3095 14.497C39.2837 14.9401 40.5307 15.9373 40.5307 18.044C40.5307 20.991 38.4688 22.587 35.5895 22.587ZM35.0685 9.5544H31.9855V13.1895H35.0685C36.4057 13.1895 37.1539 12.4579 37.1539 11.3713C37.1539 10.286 36.4057 9.5544 35.0685 9.5544ZM35.2722 15.9602H31.9855V19.8392H35.2722C36.7007 19.8392 37.3798 18.9531 37.3798 17.8883C37.3798 16.8246 36.7007 15.9602 35.2722 15.9602Z" fill="#DCE5ED"/>
<path d="M57.2833 9.5544V22.5882H54.1325V9.5544H49.916V6.80542H61.4998V9.5544H57.2833Z" fill="#DCE5ED"/>
</g>
<defs>
<clipPath id="clip0_204_3669">
<rect width="61" height="24" fill="white" transform="translate(0.5)"/>
</clipPath>
</defs>
</svg>
