<?xml version="1.0" encoding="utf-8"?><svg width="76" height="16" viewBox="0 0 76 16" fill="none" xmlns="http://www.w3.org/2000/svg">
<path d="M9.10593 15.8027V9.75337H4.24091V15.8027H0.432495V0.116211H4.24091V6.14234H9.10593V0.116211H12.9144V15.8027H9.10593Z" fill="#DCE5ED"/>
<path fill-rule="evenodd" clip-rule="evenodd" d="M19.0103 0.232144C17.9778 0.198581 17.1047 0.989544 17.0364 2.02024C17.0927 3.05842 17.9713 3.85952 19.0103 3.81995C19.6856 3.87433 20.3343 3.5448 20.6886 2.96732C21.043 2.38983 21.043 1.66226 20.6886 1.08478C20.3343 0.507296 19.6856 0.177767 19.0103 0.232144ZM19.0102 6.42082L17.3034 5.50355L17.2801 5.51516V15.8141H20.7635V5.51516L19.0102 6.42082Z" fill="#DCE5ED"/>
<path d="M28.8448 15.8026H25.3615V7.98833H23.9681V4.59791H25.3382V0.835938H28.8215V4.59791H30.1917V7.97672H28.8448V15.8026Z" fill="#DCE5ED"/>
<path fill-rule="evenodd" clip-rule="evenodd" d="M40.0145 0.116211C44.659 0.116211 45.4137 2.93769 45.4137 4.37746C45.4848 5.7623 44.7278 7.05744 43.4862 7.67499C44.9771 8.16475 45.9565 9.59097 45.8781 11.1583C45.8781 13.6198 44.4848 15.8027 39.8984 15.8027H33.7794V0.116211H40.0145ZM37.5878 6.13072H40.4325C40.7747 6.19339 41.1269 6.09932 41.3923 5.87441C41.6577 5.6495 41.8083 5.31745 41.8026 4.96962C41.8083 4.62179 41.6577 4.28974 41.3923 4.06483C41.1269 3.83992 40.7747 3.74585 40.4325 3.80852H37.5878V6.13072ZM40.6995 12.2033H37.5878V9.40503H40.6995C41.2521 9.31758 41.8043 9.56351 42.109 10.0327C42.4137 10.5019 42.4137 11.1064 42.109 11.5756C41.8043 12.0448 41.2521 12.2907 40.6995 12.2033Z" fill="#79828A"/>
<path d="M55.6778 15.8027H51.8693V3.70402H47.8519V0.116211H59.6487V3.70402H55.6778V15.8027Z" fill="#79828A"/>
<path d="M75.5558 2.56604L73.0942 4.88824C72.1413 4.0266 70.8953 3.56142 69.6109 3.58781C68.467 3.57939 67.3708 4.04538 66.5831 4.87489C65.7954 5.70439 65.3867 6.82324 65.4542 7.96517C65.376 9.11288 65.7824 10.2408 66.5746 11.0749C67.3668 11.9091 68.4723 12.373 69.6225 12.3541C70.9042 12.3892 72.1506 11.9322 73.1058 11.0769L75.5674 13.3991C74.0383 15.0479 71.8944 15.9895 69.6458 16C65.2275 16 61.6458 12.4183 61.6458 8C61.6458 3.58172 65.2275 0 69.6458 0C71.8851 0.00464262 74.0234 0.933038 75.5558 2.56604Z" fill="#79828A"/>
</svg>
