<?xml version="1.0" encoding="utf-8"?><svg width="92" height="28" viewBox="0 0 92 28" fill="none" xmlns="http://www.w3.org/2000/svg">
<g clip-path="url(#clip0_204_3982)">
<mask id="mask0_204_3982" style="mask-type:luminance" maskUnits="userSpaceOnUse" x="0" y="0" width="92" height="28">
<path d="M92 0H0V28H92V0Z" fill="white"/>
</mask>
<g mask="url(#mask0_204_3982)">
<mask id="mask1_204_3982" style="mask-type:luminance" maskUnits="userSpaceOnUse" x="0" y="0" width="92" height="28">
<path d="M92 0H0V28H92V0Z" fill="white"/>
</mask>
<g mask="url(#mask1_204_3982)">
<mask id="mask2_204_3982" style="mask-type:luminance" maskUnits="userSpaceOnUse" x="0" y="0" width="92" height="28">
<path d="M92 0H0V28H92V0Z" fill="white"/>
</mask>
<g mask="url(#mask2_204_3982)">
<path d="M2.8175 22.0208C4.02671 23.6661 5.57783 25.0429 7.36913 26.0608C9.16041 27.0787 11.1514 27.7146 13.2115 27.9269C12.1516 26.3666 10.6109 24.9311 8.68753 23.8382C6.76416 22.7454 4.72728 22.1484 2.8175 22.0208Z" fill="#DCE5ED"/>
<path d="M11.2703 19.4868C7.56471 17.3807 3.554 16.8441 0.684204 17.7922C0.961243 18.6879 1.32662 19.5552 1.77516 20.3818C4.26854 20.3253 6.99085 20.9878 9.52401 22.427C12.0571 23.8663 13.9946 25.8528 15.1801 28.0001C16.1368 27.9713 17.0885 27.8521 18.0218 27.6442C17.4416 24.7362 14.9749 21.5933 11.2703 19.4868Z" fill="#DCE5ED"/>
<path d="M28.9306 10.9383C28.4594 9.0636 27.6069 7.30104 26.424 5.7558C25.2411 4.21054 23.7521 2.91434 22.0457 1.94456C20.3394 0.974783 18.4508 0.351317 16.4927 0.111396C14.5346 -0.128524 12.5471 0.0200197 10.649 0.548157C13.82 0.927795 17.3398 2.09232 20.7917 4.05407C24.2436 6.01584 27.0237 8.42984 28.9306 10.9383Z" fill="#DCE5ED"/>
<path d="M24.3127 17.8136C22.6896 15.1766 19.9091 12.6515 16.4839 10.7049C13.0587 8.75839 9.43994 7.6465 6.29701 7.57296C3.53201 7.50893 1.45681 8.29522 0.605001 9.72977C0.600148 9.73832 0.593358 9.74635 0.588022 9.7549C0.511376 10.024 0.445404 10.2935 0.385254 10.564C1.57469 10.1047 2.95283 9.84885 4.48523 9.8204C7.89301 9.75777 11.7067 10.8241 15.2261 12.8243C18.7453 14.8244 21.5836 17.5384 23.2155 20.4644C23.947 21.7827 24.4034 23.0805 24.5844 24.3205C24.7949 24.1364 25.0016 23.9461 25.2019 23.7482C25.2073 23.7392 25.2107 23.7297 25.216 23.7202C26.0678 22.2842 25.7384 20.1318 24.3127 17.8136Z" fill="#DCE5ED"/>
<path d="M13.8807 15.0925C8.63542 12.1113 2.83908 11.6444 0.0517578 13.7248C0.0572328 14.3759 0.108123 15.0261 0.204075 15.6704C1.024 15.4273 1.86906 15.2742 2.72363 15.2139C5.83839 14.9847 9.27228 15.8336 12.3885 17.6056C15.5047 19.3776 17.9612 21.8765 19.3011 24.6351C19.6714 25.3908 19.9539 26.1847 20.1432 27.002C20.7631 26.7643 21.3658 26.4857 21.9472 26.1683C22.4139 22.7687 19.1274 18.074 13.8807 15.0925Z" fill="#DCE5ED"/>
<path d="M27.0131 13.3997C25.3715 10.7656 22.5668 8.23332 19.1173 6.27398C15.6678 4.31459 12.0351 3.18519 8.88197 3.09455C6.47833 3.02668 4.61656 3.59662 3.65125 4.67336C7.65955 4.00899 12.9465 5.12559 18.071 8.03784C23.1955 10.9501 26.8075 14.8907 28.2016 18.6259C28.6794 17.273 28.2636 15.4085 27.0131 13.3997Z" fill="#DCE5ED"/>
<path d="M41.7894 8.67017H44.2362V16.657C44.2362 17.3953 44.0666 18.0366 43.7275 18.581C43.3922 19.1254 42.925 19.5449 42.3267 19.8394C41.7284 20.134 41.0326 20.2813 40.24 20.2813C39.5347 20.2813 38.8944 20.1601 38.3189 19.9178C37.7471 19.6717 37.2936 19.2987 36.958 18.7992C36.6227 18.2958 36.4568 17.6638 36.4609 16.9031H38.9247C38.9326 17.2051 38.9953 17.4642 39.1135 17.6806C39.2355 17.8931 39.4014 18.0572 39.611 18.1727C39.8243 18.2846 40.0761 18.3405 40.3657 18.3405C40.6707 18.3405 40.928 18.2771 41.1375 18.1503C41.3508 18.0198 41.513 17.8296 41.6234 17.5798C41.7342 17.33 41.7894 17.0224 41.7894 16.657V8.67017Z" fill="#DCE5ED"/>
<path d="M51.8671 16.467V11.5339H54.3028V20.1249H51.9646V18.5644H51.873C51.6746 19.0678 51.3451 19.4723 50.8838 19.7781C50.4265 20.0838 49.868 20.2367 49.2087 20.2367C48.6216 20.2367 48.1054 20.1062 47.6594 19.8452C47.2133 19.5842 46.8647 19.2132 46.6129 18.7321C46.3652 18.2512 46.2395 17.6751 46.2357 17.004V11.5339H48.6714V16.5789C48.6751 17.086 48.8141 17.4868 49.0887 17.7814C49.3631 18.0759 49.7311 18.2232 50.1921 18.2232C50.4855 18.2232 50.7601 18.158 51.0153 18.0275C51.2708 17.8933 51.4766 17.6956 51.6327 17.4346C51.7929 17.1736 51.8713 16.8511 51.8671 16.467Z" fill="#DCE5ED"/>
<path d="M56.2523 23.3464V11.534H58.6535V12.9769H58.7622C58.8689 12.7458 59.0232 12.5109 59.2252 12.2723C59.4311 12.0299 59.6979 11.8285 60.0256 11.6682C60.3572 11.5041 60.7689 11.4221 61.2605 11.4221C61.9011 11.4221 62.4916 11.5861 63.0331 11.9143C63.5741 12.2387 64.0069 12.7291 64.3309 13.3853C64.6546 14.0378 64.8169 14.8562 64.8169 15.8406C64.8169 16.7989 64.6587 17.608 64.3422 18.268C64.0297 18.9242 63.6028 19.422 63.0616 19.7613C62.524 20.0969 61.9219 20.2647 61.2547 20.2647C60.7821 20.2647 60.38 20.1883 60.0485 20.0354C59.7207 19.8825 59.4519 19.6905 59.2423 19.4593C59.0328 19.2244 58.8726 18.9876 58.7622 18.749H58.6879V23.3464H56.2523ZM58.6364 15.8294C58.6364 16.3402 58.7087 16.7858 58.8535 17.1662C58.9983 17.5465 59.2082 17.8429 59.4826 18.0555C59.7569 18.2643 60.0904 18.3686 60.4829 18.3686C60.8796 18.3686 61.2149 18.2624 61.4892 18.0499C61.7638 17.8336 61.9713 17.5353 62.1123 17.155C62.2572 16.7709 62.3298 16.329 62.3298 15.8294C62.3298 15.3335 62.2593 14.8973 62.1182 14.5207C61.9771 14.1441 61.7696 13.8495 61.4949 13.6369C61.2207 13.4244 60.8833 13.3182 60.4829 13.3182C60.0867 13.3182 59.7514 13.4207 59.4767 13.6257C59.2062 13.8309 58.9983 14.1217 58.8535 14.4983C58.7087 14.8749 58.6364 15.3186 58.6364 15.8294Z" fill="#DCE5ED"/>
<path d="M66.4406 20.1248V11.5338H68.8762V20.1248H66.4406ZM67.6642 10.4264C67.302 10.4264 66.9916 10.309 66.7323 10.0741C66.4767 9.8355 66.3492 9.5502 66.3492 9.2184C66.3492 8.89028 66.4767 8.60873 66.7323 8.37383C66.9916 8.13516 67.302 8.01587 67.6642 8.01587C68.0264 8.01587 68.3351 8.13516 68.5903 8.37383C68.8497 8.60873 68.9791 8.89028 68.9791 9.2184C68.9791 9.5502 68.8497 9.8355 68.5903 10.0741C68.3351 10.309 68.0264 10.4264 67.6642 10.4264Z" fill="#DCE5ED"/>
<path d="M75.5019 11.5339V13.3236H70.2133V11.5339H75.5019ZM71.4137 9.47559H73.8495V17.4848C73.8495 17.7049 73.8834 17.8763 73.9526 17.9994C74.021 18.1187 74.116 18.2026 74.2381 18.2511C74.364 18.2996 74.509 18.3238 74.6724 18.3238C74.7872 18.3238 74.9013 18.3144 75.0154 18.2959C75.1302 18.2735 75.2178 18.2567 75.2788 18.2455L75.6616 20.0185C75.5394 20.0558 75.3686 20.0986 75.1471 20.1471C74.9263 20.1994 74.6577 20.231 74.3412 20.2422C73.7546 20.2646 73.2398 20.1882 72.7974 20.0129C72.3593 19.8377 72.0179 19.5655 71.7739 19.1963C71.5303 18.8272 71.41 18.3611 71.4137 17.7981V9.47559Z" fill="#DCE5ED"/>
<path d="M80.9924 20.2927C80.0893 20.2927 79.3121 20.1137 78.66 19.7557C78.0123 19.3941 77.5126 18.8832 77.1622 18.2232C76.8112 17.5595 76.636 16.7747 76.636 15.8685C76.636 14.9848 76.8112 14.2093 77.1622 13.5419C77.5126 12.8744 78.0064 12.3543 78.6431 11.9814C79.2834 11.6085 80.0341 11.4221 80.896 11.4221C81.4752 11.4221 82.0139 11.5135 82.5137 11.6962C83.0164 11.8751 83.455 12.1455 83.8289 12.5071C84.2057 12.8688 84.4994 13.3237 84.7092 13.8718C84.9189 14.4163 85.0234 15.0539 85.0234 15.7847V16.4391H77.6082V14.9625H82.7308C82.7308 14.6194 82.6543 14.3156 82.5019 14.0508C82.3496 13.7861 82.1383 13.5792 81.8675 13.43C81.6003 13.2771 81.2905 13.2007 80.9357 13.2007C80.5655 13.2007 80.238 13.2846 79.9524 13.4524C79.6705 13.6164 79.449 13.8383 79.2893 14.1179C79.1288 14.3939 79.0471 14.7015 79.0434 15.0408V16.4447C79.0434 16.8697 79.1229 17.237 79.2834 17.5465C79.4468 17.8559 79.6779 18.0946 79.9752 18.2624C80.2726 18.4302 80.6251 18.5141 81.0328 18.5141C81.3037 18.5141 81.551 18.4768 81.7762 18.4022C82.0007 18.3277 82.1935 18.2158 82.354 18.0666C82.5137 17.9175 82.6351 17.7348 82.719 17.5185L84.9719 17.6639C84.8578 18.1934 84.6231 18.6558 84.269 19.051C83.918 19.4425 83.4646 19.7483 82.9082 19.9682C82.3554 20.1845 81.7173 20.2927 80.9924 20.2927Z" fill="#DCE5ED"/>
<path d="M86.6125 20.1248V11.5339H88.9736V13.0328H89.0649C89.2253 12.4996 89.494 12.097 89.8708 11.8248C90.2484 11.5488 90.6834 11.4109 91.175 11.4109C91.2972 11.4109 91.4282 11.4183 91.5695 11.4332C91.7101 11.4482 91.8345 11.4687 91.9412 11.4947V13.609C91.8264 13.5754 91.6681 13.5455 91.4665 13.5194C91.2648 13.4934 91.0793 13.4803 90.9115 13.4803C90.5531 13.4803 90.2337 13.5567 89.951 13.7096C89.6728 13.8588 89.452 14.0676 89.2879 14.3361C89.1282 14.6045 89.048 14.914 89.048 15.2645V20.1248H86.6125Z" fill="#DCE5ED"/>
</g>
</g>
</g>
</g>
<defs>
<clipPath id="clip0_204_3982">
<rect width="92" height="28" fill="white"/>
</clipPath>
</defs>
</svg>
