<?xml version="1.0" encoding="utf-8"?><svg width="104" height="24" viewBox="0 0 104 24" fill="none" xmlns="http://www.w3.org/2000/svg">
<path fill-rule="evenodd" clip-rule="evenodd" d="M81.8461 12.0019C81.8461 11.3889 81.8461 10.8124 81.8262 10.2799C81.8127 9.77759 81.763 9.2769 81.6774 8.78174C81.5974 8.3296 81.4561 7.89047 81.2574 7.4765C81.0477 7.04968 80.7674 6.66132 80.4284 6.3278C79.9476 5.83517 79.3755 5.44088 78.7439 5.16697C78.0607 4.89023 77.3291 4.75304 76.592 4.76349C75.8522 4.75393 75.1178 4.89107 74.4313 5.16697C73.7962 5.43714 73.2204 5.82971 72.7369 6.32229C72.3986 6.65561 72.1194 7.04405 71.9112 7.47099C71.7142 7.88505 71.5751 8.32425 71.4978 8.77623C71.4142 9.27153 71.3663 9.77221 71.3545 10.2744C71.3413 10.8069 71.3347 11.3834 71.338 11.9963C71.3413 12.6093 71.338 13.1814 71.3545 13.7172C71.3663 14.2194 71.4142 14.72 71.4978 15.2154C71.5751 15.6673 71.7142 16.1065 71.9112 16.5206C72.1202 16.947 72.3993 17.3353 72.7369 17.6693C73.2197 18.1623 73.7956 18.5542 74.4313 18.8224C75.1174 19.1001 75.852 19.238 76.592 19.2281C77.3293 19.2389 78.0612 19.101 78.7439 18.8224C79.3756 18.5521 79.9479 18.1603 80.4284 17.6693C80.7667 17.3351 81.0468 16.9469 81.2574 16.5206C81.4561 16.1066 81.5974 15.6675 81.6774 15.2154C81.762 14.7216 81.811 14.2224 81.824 13.7216C81.8406 13.1858 81.8483 12.6126 81.8439 12.0008L81.8461 12.0019ZM79.0664 12.0024C79.0664 12.6815 79.0565 13.247 79.0333 13.6968C79.0203 14.0662 78.9835 14.4345 78.9231 14.7992C78.8818 15.0422 78.8076 15.2784 78.7026 15.5014C78.6174 15.6811 78.5059 15.8472 78.3719 15.9942C78.1649 16.2311 77.9082 16.4193 77.62 16.5454C77.2958 16.6841 76.9464 16.7547 76.5937 16.7527C76.2393 16.7542 75.8882 16.6837 75.5619 16.5454C75.2667 16.4217 75.003 16.2333 74.7902 15.9942C74.6553 15.8479 74.5437 15.6817 74.4595 15.5014C74.3574 15.2782 74.2869 15.0418 74.25 14.7992C74.1911 14.4343 74.1543 14.0661 74.1398 13.6968C74.1199 13.247 74.11 12.6822 74.11 12.0024C74.11 11.3233 74.1199 10.7567 74.1398 10.3069C74.1544 9.93756 74.1912 9.56943 74.25 9.2045C74.2869 8.96185 74.3574 8.7255 74.4595 8.50228C74.544 8.32216 74.6555 8.15599 74.7902 8.0095C75.0033 7.77073 75.2669 7.58243 75.5619 7.4583C75.8877 7.31843 76.2391 7.24785 76.5937 7.25105C76.9466 7.24739 77.2962 7.318 77.62 7.4583C77.908 7.58477 78.1646 7.77293 78.3719 8.0095C78.5057 8.15666 78.6171 8.32269 78.7026 8.50228C78.8076 8.72527 78.8818 8.96151 78.9231 9.2045C78.9834 9.56923 79.0202 9.93745 79.0333 10.3069C79.0576 10.7556 79.0664 11.3222 79.0664 12.0024Z" fill="#DCE5ED"/>
<path fill-rule="evenodd" clip-rule="evenodd" d="M103.979 5.13206C103.978 4.998 103.869 4.88962 103.735 4.88843H101.443C101.309 4.88903 101.2 4.99776 101.2 5.13206V13.5985L95.6104 4.95678C95.5729 4.89835 95.5399 4.88843 95.4572 4.88843H93.3318C93.198 4.89021 93.0899 4.99825 93.0881 5.13206V18.8702C93.0899 19.0038 93.1981 19.1115 93.3318 19.1127H95.6226C95.7562 19.1121 95.8645 19.0039 95.8651 18.8702V10.3817L101.455 19.0432C101.494 19.1017 101.525 19.1116 101.609 19.1116H103.733C103.867 19.111 103.975 19.0029 103.977 18.8691L103.979 5.13206Z" fill="#DCE5ED"/>
<path fill-rule="evenodd" clip-rule="evenodd" d="M88.6175 5.13206C88.6169 4.99776 88.5082 4.88903 88.3739 4.88843H86.0842C85.9499 4.88903 85.8412 4.99776 85.8406 5.13206V18.8691C85.8412 19.0034 85.9499 19.1121 86.0842 19.1127H88.3739C88.5082 19.1121 88.6169 19.0034 88.6175 18.8691V5.13206Z" fill="#DCE5ED"/>
<path fill-rule="evenodd" clip-rule="evenodd" d="M61.2053 12.0018C61.2053 11.3183 61.213 10.7495 61.2329 10.2964C61.2464 9.92698 61.2832 9.55878 61.3431 9.194C61.5548 7.97034 62.4918 7.24827 63.6879 7.24827C64.4684 7.25488 65.1762 7.54371 65.6282 8.20074C65.8328 8.50748 65.9821 8.84778 66.0691 9.20613C66.0758 9.24388 66.1103 9.27021 66.1485 9.26676H68.8439C68.8824 9.26676 68.8968 9.2403 68.8902 9.20282C68.5958 7.53489 67.7062 6.03673 66.1342 5.29481C65.3616 4.9371 64.5183 4.75812 63.667 4.77117C62.1493 4.77117 60.8709 5.29077 59.8317 6.32997C59.2384 6.90821 58.8335 7.65206 58.6698 8.46421C58.5111 9.26382 58.431 10.4427 58.4295 12.0007C58.428 13.5588 58.5081 14.7372 58.6698 15.5361C58.8321 16.3493 59.2359 17.0947 59.8284 17.6748C60.8669 18.7132 62.1453 19.2325 63.6637 19.2325C64.5148 19.2453 65.358 19.0668 66.1308 18.7099C67.7029 17.968 68.5925 16.4698 68.8869 14.8019C68.8935 14.7633 68.8791 14.738 68.8406 14.738H66.1441C66.1057 14.734 66.0709 14.7606 66.0647 14.7986C65.9775 15.1565 65.8282 15.4964 65.6237 15.8029C65.1718 16.4643 64.464 16.7499 63.6835 16.7554C62.4874 16.7554 61.5504 16.0344 61.3387 14.8107C61.2788 14.4459 61.242 14.0777 61.2285 13.7083C61.213 13.253 61.2053 12.6831 61.2053 12.0018Z" fill="#DCE5ED"/>
<path fill-rule="evenodd" clip-rule="evenodd" d="M32.7389 5.13206C32.7383 4.99776 32.6295 4.88903 32.4952 4.88843H30.2055C30.0712 4.88903 29.9625 4.99776 29.9619 5.13206V18.8702C29.9631 19.004 30.0717 19.1121 30.2055 19.1128H32.4952C32.6291 19.1121 32.7377 19.004 32.7389 18.8702V14.8376L34.5766 12.6405L38.3512 19.0399C38.3802 19.0871 38.4325 19.1149 38.4879 19.1128H41.2703C41.3982 19.1128 41.4214 19.0333 41.3574 18.9242L36.4154 10.5459L40.9495 5.1067C41.041 4.99646 41.0025 4.89173 40.8591 4.89173H37.8176C37.7806 4.88956 37.745 4.90613 37.7228 4.93583L32.7389 10.913V5.13206Z" fill="#DCE5ED"/>
<path fill-rule="evenodd" clip-rule="evenodd" d="M49.421 16.7558C48.1323 16.7558 46.9637 15.563 46.9637 14.1387V5.13206C46.9631 4.99776 46.8544 4.88903 46.7201 4.88843H44.4304C44.2961 4.88903 44.1874 4.99776 44.1868 5.13206V14.1034C44.1868 17.2397 46.5327 19.2329 49.421 19.2329C52.3093 19.2329 54.6552 17.2397 54.6552 14.1034V5.13206C54.654 4.998 54.5456 4.88962 54.4115 4.88843H52.1207C51.9869 4.88963 51.8788 4.99818 51.8782 5.13206V14.1387C51.8782 15.5619 50.7086 16.7558 49.421 16.7558Z" fill="#DCE5ED"/>
<path fill-rule="evenodd" clip-rule="evenodd" d="M6.94884 12.0024L14.0571 19.1118L18.5439 14.625C19.3462 13.9026 20.5736 13.9348 21.337 14.6982C22.1004 15.4616 22.1325 16.689 21.4101 17.4913L15.4891 23.4134C14.6938 24.1955 13.4182 24.1955 12.6229 23.4134L4.0804 14.8687V19.9474C4.0804 21.0683 3.17175 21.9769 2.05088 21.9769C0.930009 21.9769 0.0213623 21.0683 0.0213623 19.9474V4.05082C0.0213623 2.92994 0.930009 2.0213 2.05088 2.0213C3.17175 2.0213 4.0804 2.92994 4.0804 4.05082V9.12957L12.6218 0.587074C13.4169 -0.195691 14.6929 -0.195691 15.488 0.587074L21.4134 6.50806C22.1358 7.31036 22.1037 8.53778 21.3403 9.30118C20.5769 10.0646 19.3495 10.0967 18.5472 9.37431L14.0604 4.88754L6.94884 12.0024ZM14.0615 9.97015C13.2397 9.96971 12.4985 10.4644 12.1837 11.2236C11.8688 11.9828 12.0424 12.8568 12.6234 13.4381C13.2044 14.0194 14.0783 14.1935 14.8377 13.8791C15.597 13.5646 16.0921 12.8237 16.0921 12.0019C16.0924 11.463 15.8787 10.9461 15.4978 10.5649C15.117 10.1837 14.6004 9.96934 14.0615 9.96905V9.97015Z" fill="#DCE5ED"/>
</svg>
