<?xml version="1.0" encoding="utf-8"?><svg width="110" height="20" viewBox="0 0 110 20" fill="none" xmlns="http://www.w3.org/2000/svg">
<path d="M32.2222 14.127L25.1736 1.91049C23.628 -0.634302 19.8648 -0.664153 18.3714 2.01497L10.9794 14.7165C9.59803 17.0449 11.3079 19.9703 14.0706 19.9703H28.892C31.6771 19.9703 33.7678 16.9703 32.2222 14.127Z" fill="#79828A"/>
<path d="M22.0611 15.0746L21.628 14.3134C21.2248 13.6119 20.3288 12.0895 20.3288 12.0895L14.3629 1.74619C12.8248 -0.55233 9.1661 -0.746361 7.62049 2.15664L0.683917 14.1493C-0.749692 16.6717 0.952719 19.9478 4.07381 19.9702H18.8131H25.1001H28.8409C25.0179 20 23.7934 18.0224 22.0611 15.0746Z" fill="#DCE5ED"/>
<path d="M22.0612 15.0747L21.6281 14.3135C21.2249 13.612 20.3289 12.0896 20.3289 12.0896L16.4387 5.34326L10.9507 14.7463C9.56934 17.0747 11.2792 20.0001 14.0419 20.0001H18.7833H25.0702H28.8335C24.9881 19.9702 23.7934 18.0224 22.0612 15.0747Z" fill="url(#paint0_linear_204_3713)"/>
<path d="M60.4569 18.8433V2.3208H74.1957V3.36558C74.1957 4.19395 73.5311 4.85813 72.7023 4.85813H63.8841V9.29846H72.7023V11.8358H63.8841V16.2761H72.7023C73.5237 16.2761 74.1957 16.9403 74.1957 17.7687V18.8134L60.4569 18.8433Z" fill="#DCE5ED"/>
<path d="M93.9285 2.3208H90.6954C90.0906 2.3208 89.553 2.57453 89.1722 3.05215L85.2671 7.97009L81.362 3.08946C80.9812 2.61185 80.4436 2.35811 79.8388 2.35811H76.6057L83.1764 10.6044L76.6057 18.8508H79.8388C80.4436 18.8508 80.9812 18.597 81.362 18.1194L85.2671 13.2388L89.2021 18.1567C89.5829 18.597 90.1205 18.8881 90.7253 18.8881H93.9584L87.3876 10.6417L93.9285 2.3208Z" fill="#DCE5ED"/>
<path d="M49.6972 17.097L54.1997 9.23125V18.8059H57.6269V2.29091H55.4989C54.8343 2.29091 54.1997 2.64166 53.8786 3.24614L48.4876 13.0746L43.0967 3.23868C42.7756 2.6342 42.1409 2.28345 41.4764 2.28345H39.3558V18.8059H42.7831V9.23125L47.2855 17.097H49.6972Z" fill="#DCE5ED"/>
<path d="M102.879 19.0299C98.1225 19.0896 94.2473 15.3507 94.2174 10.597C94.2174 7.99248 95.0089 5.83575 96.5022 4.35067C97.9956 2.88797 100.153 2.09692 102.722 2.09692C105.739 2.09692 108.113 3.14171 109.83 5.17157L108.755 6.08949C108.091 6.65665 107.105 6.69397 106.373 6.15665C105.417 5.4253 104.215 5.07455 102.849 5.07455C99.4889 5.07455 97.4878 7.10442 97.4878 10.5298C97.4878 13.9851 99.5486 16.1119 102.849 16.1119C104.245 16.1119 105.417 15.7313 106.373 15.0373C107.075 14.5 108.053 14.5298 108.755 15.1045L109.83 16.0224C108.113 18.0149 105.828 19.0299 102.879 19.0299Z" fill="#DCE5ED"/>
<defs>
<linearGradient id="paint0_linear_204_3713" x1="9.33548" y1="10.4937" x2="25.3886" y2="16.7996" gradientUnits="userSpaceOnUse">
<stop/>
<stop offset="1" stop-color="#686D6D"/>
</linearGradient>
</defs>
</svg>
