<?xml version="1.0" encoding="utf-8"?><svg width="66" height="20" viewBox="0 0 66 20" fill="none" xmlns="http://www.w3.org/2000/svg">
<path d="M19.4546 0H0.671618C0.555782 0 0.444684 0.0467855 0.362809 0.130177C0.280846 0.213479 0.234863 0.326511 0.234863 0.444455V19.5547C0.234863 19.6726 0.280846 19.7856 0.362809 19.8689C0.444684 19.9523 0.555782 19.9991 0.671618 19.9991H19.4546C19.5705 19.9991 19.6816 19.9523 19.7635 19.8689C19.8454 19.7856 19.8914 19.6726 19.8914 19.5547V0.444455C19.8914 0.326511 19.8454 0.213479 19.7635 0.130177C19.6816 0.0467855 19.5705 0 19.4546 0ZM13.3392 12.8883C13.3392 13.0062 13.2932 13.1192 13.2113 13.2026C13.1294 13.2859 13.0183 13.3328 12.9024 13.3328H7.22383C7.108 13.3328 6.9969 13.2859 6.91493 13.2026C6.83306 13.1192 6.78708 13.0062 6.78708 12.8883V7.11075C6.78708 6.9929 6.83306 6.87986 6.91493 6.79656C6.9969 6.71317 7.108 6.66639 7.22383 6.66639H12.9024C13.0183 6.66639 13.1294 6.71317 13.2113 6.79656C13.2932 6.87986 13.3392 6.9929 13.3392 7.11075V12.8883Z" fill="#DCE5ED"/>
<path d="M58.7785 6.66724H53.0999C52.8587 6.66724 52.6631 6.86616 52.6631 7.1116V12.8892C52.6631 13.1346 52.8587 13.3336 53.0999 13.3336H58.7785C59.0197 13.3336 59.2153 13.1346 59.2153 12.8892V7.1116C59.2153 6.86616 59.0197 6.66724 58.7785 6.66724Z" fill="#DCE5ED"/>
<path d="M52.2243 0.000976562H46.5457C46.3045 0.000976562 46.1089 0.199901 46.1089 0.445432V6.22291C46.1089 6.46835 46.3045 6.66736 46.5457 6.66736H52.2243C52.4656 6.66736 52.6611 6.46835 52.6611 6.22291V0.445432C52.6611 0.199901 52.4656 0.000976562 52.2243 0.000976562Z" fill="#DCE5ED"/>
<path d="M65.3286 0.000976562H59.65C59.4087 0.000976562 59.2131 0.199901 59.2131 0.445432V6.22291C59.2131 6.46835 59.4087 6.66736 59.65 6.66736H65.3286C65.5698 6.66736 65.7654 6.46835 65.7654 6.22291V0.445432C65.7654 0.199901 65.5698 0.000976562 65.3286 0.000976562Z" fill="#DCE5ED"/>
<path d="M52.2243 13.3335H46.5457C46.3045 13.3335 46.1089 13.5324 46.1089 13.7779V19.5554C46.1089 19.8009 46.3045 19.9999 46.5457 19.9999H52.2243C52.4656 19.9999 52.6611 19.8009 52.6611 19.5554V13.7779C52.6611 13.5324 52.4656 13.3335 52.2243 13.3335Z" fill="#DCE5ED"/>
<path d="M65.3286 13.3335H59.65C59.4087 13.3335 59.2131 13.5324 59.2131 13.7779V19.5554C59.2131 19.8009 59.4087 19.9999 59.65 19.9999H65.3286C65.5698 19.9999 65.7654 19.8009 65.7654 19.5554V13.7779C65.7654 13.5324 65.5698 13.3335 65.3286 13.3335Z" fill="#DCE5ED"/>
<path d="M42.3881 0.000976562H36.7096C36.4683 0.000976562 36.2727 0.199901 36.2727 0.445432V6.22291C36.2727 6.46835 36.4683 6.66736 36.7096 6.66736H42.3881C42.6293 6.66736 42.8249 6.46835 42.8249 6.22291V0.445432C42.8249 0.199901 42.6293 0.000976562 42.3881 0.000976562Z" fill="#DCE5ED"/>
<path d="M42.3881 13.3335H36.7096C36.4683 13.3335 36.2727 13.5324 36.2727 13.7779V19.5554C36.2727 19.8009 36.4683 19.9999 36.7096 19.9999H42.3881C42.6293 19.9999 42.8249 19.8009 42.8249 19.5554V13.7779C42.8249 13.5324 42.6293 13.3335 42.3881 13.3335Z" fill="#DCE5ED"/>
<path d="M36.2717 7.10575C36.2717 6.9879 36.2256 6.87486 36.1437 6.79156C36.0618 6.70817 35.9507 6.66139 35.8348 6.66139H29.7194V0.444455C29.7194 0.326511 29.6734 0.213479 29.5915 0.130177C29.5095 0.0467855 29.3984 0 29.2826 0H23.6041C23.4882 0 23.3771 0.0467855 23.2952 0.130177C23.2132 0.213479 23.1672 0.326511 23.1672 0.444455V19.5447C23.1672 19.6626 23.2132 19.7756 23.2952 19.8589C23.3771 19.9423 23.4882 19.9891 23.6041 19.9891H29.2826C29.3984 19.9891 29.5095 19.9423 29.5915 19.8589C29.6734 19.7756 29.7194 19.6626 29.7194 19.5447V13.3278H35.8348C35.9507 13.3278 36.0618 13.2809 36.1437 13.1976C36.2256 13.1142 36.2717 13.0012 36.2717 12.8833V7.10575Z" fill="#DCE5ED"/>
</svg>
