<?xml version="1.0" encoding="utf-8"?><svg width="102" height="24" viewBox="0 0 102 24" fill="none" xmlns="http://www.w3.org/2000/svg">
<g clip-path="url(#clip0_204_3754)">
<mask id="mask0_204_3754" style="mask-type:luminance" maskUnits="userSpaceOnUse" x="0" y="0" width="102" height="24">
<path d="M102 0H0V23.84H102V0Z" fill="white"/>
</mask>
<g mask="url(#mask0_204_3754)">
<path d="M76.1591 10.5875C76.1591 8.02553 74.0944 5.94892 71.5478 5.94892C70.9304 5.94857 70.3197 6.07313 69.7515 6.31512C69.1834 6.55712 68.6699 6.91159 68.2422 7.35717C67.5199 6.61191 66.5668 6.13386 65.5383 6.00103C64.5099 5.8682 63.4669 6.08844 62.5795 6.6258H60.338V10.5713L60.3372 10.6003L60.338 17.8876H62.9722V10.5994C62.9718 10.339 63.0226 10.081 63.1216 9.84028C63.2207 9.59952 63.3661 9.38071 63.5496 9.19626C63.7331 9.0118 63.9511 8.86533 64.1912 8.76528C64.4312 8.66524 64.6885 8.61347 64.9484 8.61306C65.2084 8.6136 65.4658 8.66544 65.7057 8.76563C65.9457 8.86581 66.1636 9.01228 66.3471 9.19687C66.5305 9.3814 66.6758 9.60028 66.7748 9.8411C66.8738 10.0819 66.9244 10.3399 66.9239 10.6003H66.9324V17.8876H69.5653V10.5994H69.5736L69.5722 10.5875C69.5715 10.0616 69.7789 9.55694 70.1493 9.18432C70.5196 8.81171 71.0228 8.6016 71.5478 8.60023C71.808 8.60085 72.0654 8.65269 72.305 8.7528C72.5452 8.85299 72.7629 8.99952 72.9464 9.18405C73.1299 9.36857 73.275 9.58752 73.3742 9.82835C73.4728 10.0691 73.5235 10.3271 73.5235 10.5875V10.6003H73.5255V17.8876H76.1591V10.5875ZM26.7563 15.232C26.323 15.2312 25.8941 15.1448 25.4942 14.9779C25.0942 14.8109 24.731 14.5666 24.4253 14.2591C24.1196 13.9515 23.8773 13.5867 23.7124 13.1853C23.5476 12.784 23.4632 12.354 23.4642 11.92C23.4632 11.486 23.5476 11.056 23.7124 10.6546C23.8773 10.2533 24.1196 9.88842 24.4253 9.58087C24.731 9.27333 25.0942 9.02908 25.4942 8.86217C25.8941 8.6952 26.323 8.6088 26.7563 8.60791C27.1896 8.60873 27.6186 8.695 28.0186 8.8619C28.4187 9.0288 28.782 9.27299 29.0878 9.5806C29.3936 9.88814 29.6358 10.2531 29.8008 10.6545C29.9658 11.0558 30.0502 11.4859 30.0492 11.92C30.0502 12.354 29.9658 12.7841 29.8008 13.1855C29.6358 13.5869 29.3936 13.9518 29.0878 14.2594C28.782 14.567 28.4187 14.8112 28.0186 14.9781C27.6186 15.145 27.1896 15.2312 26.7563 15.232ZM26.7563 5.95743C25.5831 5.95617 24.4363 6.30635 23.4633 6.96295V6.95191H20.8284V20.8617H23.4633V16.877C24.4362 17.5338 25.5831 17.884 26.7563 17.8825C30.0305 17.8825 32.6841 15.2133 32.6841 11.92C32.6841 8.62663 30.0305 5.95743 26.7563 5.95743ZM102.001 17.8834L97.7194 11.9217L101.882 6.12516H98.7538L96.1545 9.74373L93.5559 6.12516H90.4288L94.5916 11.9217L90.3097 17.8834H93.4381L96.1552 14.0997L98.8729 17.8834H102.001ZM39.6006 5.95828C38.7966 5.95791 38.0049 6.15588 37.2954 6.5347V2.97998H34.6604V17.8825H37.2954V10.9264C37.2947 10.6225 37.3538 10.3215 37.4694 10.0405C37.5848 9.7595 37.7545 9.50407 37.9685 9.28883C38.1826 9.07351 38.4369 8.90256 38.7169 8.78572C38.997 8.66887 39.2973 8.60846 39.6006 8.60791C39.9039 8.6086 40.2041 8.66908 40.484 8.78599C40.764 8.90284 41.0181 9.07379 41.2321 9.2891C41.4461 9.50442 41.6157 9.75977 41.7311 10.0407C41.8465 10.3216 41.9056 10.6225 41.9049 10.9264V17.8825H44.5382V10.9264H44.5399C44.5399 8.18222 42.3283 5.95828 39.6006 5.95828ZM52.4424 8.61306C53.1435 8.61408 53.8259 8.839 54.3906 9.25523C54.9552 9.67139 55.3728 10.2571 55.5823 10.9272H49.3025C49.5119 10.2571 49.9294 9.67125 50.4941 9.25502C51.0588 8.83886 51.7414 8.61395 52.4424 8.61306ZM58.2819 12.9145C58.3355 12.5918 58.3694 12.2623 58.3694 11.9242C58.3694 8.63178 55.7157 5.96254 52.4424 5.96254C49.1682 5.96254 46.5145 8.63178 46.5145 11.9242C46.5145 15.2176 49.1682 17.8868 52.4424 17.8868C53.4842 17.8861 54.5073 17.61 55.4084 17.0866C56.3096 16.563 57.0569 15.8105 57.5747 14.9051L55.2933 13.5803C55.0057 14.0831 54.5907 14.5009 54.0903 14.7917C53.5899 15.0825 53.0218 15.2358 52.4432 15.2363C51.7407 15.2354 51.0569 15.0097 50.4916 14.5919C49.9263 14.1743 49.5091 13.5865 49.3008 12.9145H58.2819ZM84.0541 8.61306C84.7551 8.61408 85.4376 8.839 86.0024 9.25523C86.5665 9.67139 86.9841 10.2571 87.1935 10.9272H80.914C81.1235 10.2571 81.5411 9.67139 82.1059 9.25523C82.6706 8.839 83.3531 8.61408 84.0541 8.61306ZM89.8935 12.9145C89.9475 12.5918 89.9818 12.2623 89.9818 11.9242C89.9818 8.63178 87.3284 5.96254 84.0541 5.96254C80.7806 5.96254 78.1272 8.63178 78.1272 11.9242C78.1272 15.2176 80.7806 17.8868 84.0541 17.8868C85.096 17.8862 86.1188 17.6103 87.0203 17.0868C87.9219 16.5632 88.6688 15.8107 89.187 14.9051L86.9046 13.5803C86.6171 14.0832 86.2023 14.5011 85.7012 14.7919C85.2008 15.0827 84.6326 15.236 84.0541 15.2363C83.3518 15.2353 82.6679 15.0094 82.1024 14.5917C81.5377 14.174 81.1208 13.5863 80.912 12.9145H89.8935Z" fill="#DCE5ED"/>
<path d="M0.0908203 17.8804C0.0908203 21.172 2.74367 23.8404 6.01617 23.8404V11.9204C6.01617 15.212 3.36332 17.8804 0.0916705 17.8804" fill="#79828A"/>
<path d="M0.0908203 5.95972V17.8797C3.36332 17.8797 6.01617 15.2114 6.01617 11.9197C6.01617 8.6281 3.36332 5.95972 0.0916705 5.95972M8.97843 11.9197C8.97843 15.2114 11.6313 17.8797 14.9037 17.8797V5.95972C14.9037 9.25134 12.2509 11.9197 8.97843 11.9197Z" fill="#DCE5ED"/>
<path d="M8.97949 0V11.92C12.252 11.92 14.9048 9.25166 14.9048 5.96C14.9048 2.66838 12.252 0 8.97949 0Z" fill="#79828A"/>
</g>
</g>
<defs>
<clipPath id="clip0_204_3754">
<rect width="102" height="24" fill="white"/>
</clipPath>
</defs>
</svg>
