<?xml version="1.0" encoding="utf-8"?>
<svg width="120" height="126" viewBox="0 0 120 126" fill="none" xmlns="http://www.w3.org/2000/svg">
<line x1="22.25" y1="1.09278e-08" x2="22.25" y2="120" stroke="url(#paint0_linear_204_4118)" stroke-width="0.5"/>
<line x1="98.25" y1="1.09278e-08" x2="98.25" y2="120" stroke="url(#paint1_linear_204_4118)" stroke-width="0.5"/>
<line x1="2.18557e-08" y1="22.75" x2="120" y2="22.75" stroke="url(#paint2_linear_204_4118)" stroke-width="0.5"/>
<line x1="2.18557e-08" y1="97.75" x2="120" y2="97.75" stroke="url(#paint3_linear_204_4118)" stroke-width="0.5"/>
<g filter="url(#filter0_f_204_4118)">
<rect x="38" y="68" width="45" height="34" rx="8" fill="#050B10"/>
</g>
<rect x="22.25" y="22.25" width="75.5" height="75.5" rx="10.15" fill="#12191F" stroke="#959CA3" stroke-width="0.5"/>
<path d="M70.7981 41.4495L57.6475 54.6001C55.1568 53.4069 52.3573 53.0161 49.6351 53.4816C46.9129 53.947 44.4023 55.2458 42.4495 57.1987C37.2365 62.4117 37.2365 70.8847 42.4495 76.0977C47.6625 81.3107 56.1356 81.3107 61.3486 76.0977C63.3015 74.145 64.6002 71.6343 65.0657 68.9121C65.5311 66.1899 65.1403 63.3904 63.9472 60.8997L64.4984 60.3485H70.7981V54.0488L77.0978 54.0488L77.0348 41.3865L70.7981 41.4495ZM56.6238 71.3729C54.0252 73.9716 49.7729 73.9716 47.1743 71.3729C44.5757 68.7743 44.5757 64.522 47.1743 61.9234C49.7729 59.3248 54.0252 59.3248 56.6238 61.9234C59.2224 64.522 59.2224 68.7743 56.6238 71.3729Z" fill="url(#paint4_linear_204_4118)"/>
<path d="M76.8464 53.7986H70.5476V60.0984H64.3953L63.6453 60.8484L63.7214 61.0076C64.8922 63.4515 65.2758 66.1987 64.8191 68.8699C64.3624 71.541 63.0879 74.0045 61.1716 75.9207C56.0563 81.036 47.7421 81.0359 42.6267 75.9207C37.5114 70.8053 37.5114 62.4911 42.6267 57.3757C44.5428 55.4595 47.0063 54.185 49.6775 53.7283C52.3486 53.2716 55.0959 53.6552 57.5398 54.8259L57.699 54.9021L70.9041 41.697L76.7859 41.6384L76.8464 53.7986ZM56.8005 61.7468C54.1043 59.0506 49.6941 59.0506 46.9978 61.7468C44.3016 64.4431 44.3016 68.8533 46.9978 71.5496C49.6941 74.2457 54.1043 74.2458 56.8005 71.5496C59.4967 68.8533 59.4967 64.4431 56.8005 61.7468Z" stroke="url(#paint5_linear_204_4118)" stroke-width="0.5"/>
<rect x="20.489" y="99.1062" width="3.6755" height="3.69432" transform="rotate(-90 20.489 99.1062)" fill="#384148"/>
<rect x="20.489" y="24.1191" width="3.6755" height="3.69432" transform="rotate(-90 20.489 24.1191)" fill="#384148"/>
<rect x="96.2793" y="24.1062" width="3.6755" height="3.69432" transform="rotate(-90 96.2793 24.1062)" fill="#384148"/>
<rect x="95.2793" y="99.1191" width="3.6755" height="3.69432" transform="rotate(-90 95.2793 99.1191)" fill="#384148"/>
<defs>
<filter id="filter0_f_204_4118" x="14" y="44" width="93" height="82" filterUnits="userSpaceOnUse" color-interpolation-filters="sRGB">
<feFlood flood-opacity="0" result="BackgroundImageFix"/>
<feBlend mode="normal" in="SourceGraphic" in2="BackgroundImageFix" result="shape"/>
<feGaussianBlur stdDeviation="12" result="effect1_foregroundBlur_204_4118"/>
</filter>
<linearGradient id="paint0_linear_204_4118" x1="21.5" y1="-2.18557e-08" x2="21.5" y2="120" gradientUnits="userSpaceOnUse">
<stop offset="0.0553971" stop-color="#1A232B"/>
<stop offset="0.486154" stop-color="#959CA3"/>
<stop offset="0.938362" stop-color="#1A232B"/>
</linearGradient>
<linearGradient id="paint1_linear_204_4118" x1="97.5" y1="-2.18557e-08" x2="97.5" y2="120" gradientUnits="userSpaceOnUse">
<stop offset="0.0553971" stop-color="#1A232B"/>
<stop offset="0.486154" stop-color="#959CA3"/>
<stop offset="0.938362" stop-color="#1A232B"/>
</linearGradient>
<linearGradient id="paint2_linear_204_4118" x1="-4.37114e-08" y1="23.5" x2="120" y2="23.5" gradientUnits="userSpaceOnUse">
<stop offset="0.0553971" stop-color="#1A232B"/>
<stop offset="0.486154" stop-color="#959CA3"/>
<stop offset="0.938362" stop-color="#1A232B"/>
</linearGradient>
<linearGradient id="paint3_linear_204_4118" x1="-4.37114e-08" y1="98.5" x2="120" y2="98.5" gradientUnits="userSpaceOnUse">
<stop offset="0.0553971" stop-color="#1A232B"/>
<stop offset="0.486154" stop-color="#959CA3"/>
<stop offset="0.938362" stop-color="#1A232B"/>
</linearGradient>
<linearGradient id="paint4_linear_204_4118" x1="57.8188" y1="41.3865" x2="57.8188" y2="80.0074" gradientUnits="userSpaceOnUse">
<stop offset="0.0769231" stop-color="#232D36"/>
<stop offset="0.807692" stop-color="#12191F"/>
</linearGradient>
<linearGradient id="paint5_linear_204_4118" x1="77" y1="41" x2="47.4998" y2="76.5" gradientUnits="userSpaceOnUse">
<stop offset="0.27638" stop-color="#DCE5ED"/>
<stop offset="0.718221" stop-color="#12191F"/>
</linearGradient>
</defs>
</svg>
